<svg width="31" height="31" viewBox="0 0 31 31" fill="none" xmlns="http://www.w3.org/2000/svg">
<path d="M13.5936 2.0104C14.1837 0.149972 16.8163 0.149973 17.4064 2.0104L19.66 9.11532C19.9235 9.94615 20.6947 10.5106 21.5664 10.5106H28.9596C30.8854 10.5106 31.6986 12.9653 30.1537 14.1151L24.0902 18.6279C23.406 19.1371 23.12 20.0241 23.3779 20.837L25.6743 28.077C26.2614 29.9281 24.1317 31.4455 22.5738 30.286L16.6941 25.91C15.9854 25.3826 15.0146 25.3826 14.3059 25.91L8.42622 30.286C6.86832 31.4455 4.73857 29.9281 5.32572 28.077L7.62211 20.837C7.87995 20.0241 7.59395 19.1371 6.90981 18.6279L0.84626 14.115C-0.698589 12.9653 0.114607 10.5106 2.04036 10.5106H9.43364C10.3053 10.5106 11.0765 9.94615 11.34 9.11532L13.5936 2.0104Z" fill="url(#paint0_angular_105_28)"/>
<path d="M16.4532 2.31274L18.7068 9.41766C19.1021 10.6639 20.2589 11.5106 21.5664 11.5106H28.9596C29.9225 11.5106 30.3291 12.738 29.5567 13.3128L23.4931 17.8257C22.4669 18.5895 22.0379 19.92 22.4247 21.1394L24.7211 28.3793C25.0147 29.3049 23.9498 30.0636 23.1708 29.4838L17.2912 25.1078C16.2281 24.3166 14.7719 24.3166 13.7088 25.1078L7.82917 29.4838C7.05022 30.0636 5.98534 29.3049 6.27892 28.3793L8.57531 21.1393C8.96207 19.92 8.53307 18.5895 7.50686 17.8257L1.44331 13.3128C0.670889 12.738 1.07748 11.5106 2.04036 11.5106H9.43364C10.7411 11.5106 11.8979 10.6639 12.2932 9.41766L14.5468 2.31274C14.8418 1.38253 16.1582 1.38253 16.4532 2.31274Z" stroke="#7531E3" stroke-opacity="0.75" stroke-width="2"/>
<defs>
<radialGradient id="paint0_angular_105_28" cx="0" cy="0" r="1" gradientUnits="userSpaceOnUse" gradientTransform="translate(16 1) rotate(90) scale(37 36.1191)">
<stop stop-color="#7531E3"/>
<stop offset="1" stop-color="#7531E3" stop-opacity="0"/>
</radialGradient>
</defs>
</svg>
