<svg width="32" height="31" viewBox="0 0 32 31" fill="none" xmlns="http://www.w3.org/2000/svg">
<path d="M16.9511 2.16312L19.3147 9.43769C19.7163 10.6738 20.8682 11.5106 22.1679 11.5106H29.8168C30.7855 11.5106 31.1883 12.7503 30.4046 13.3197L24.2165 17.8156C23.165 18.5795 22.725 19.9336 23.1267 21.1697L25.4903 28.4443C25.7897 29.3656 24.7352 30.1317 23.9515 29.5623L17.7634 25.0664C16.7119 24.3024 15.2881 24.3024 14.2366 25.0664L8.04852 29.5623C7.26481 30.1317 6.21033 29.3656 6.50968 28.4443L8.87333 21.1697C9.27495 19.9336 8.83498 18.5795 7.78352 17.8156L1.5954 13.3197C0.811681 12.7503 1.21446 11.5106 2.18318 11.5106H9.83212C11.1318 11.5106 12.2837 10.6738 12.6853 9.43769L15.0489 2.16312C15.3483 1.24181 16.6517 1.24181 16.9511 2.16312Z" stroke="#7531E3" stroke-opacity="0.75" stroke-width="2"/>
</svg>
