<svg width="32" height="31" viewBox="0 0 32 31" fill="none" xmlns="http://www.w3.org/2000/svg">
<path d="M14.0979 1.8541C14.6966 0.0114833 17.3034 0.011479 17.9021 1.8541L20.2658 9.12868C20.5335 9.95272 21.3014 10.5106 22.1679 10.5106H29.8168C31.7543 10.5106 32.5598 12.9899 30.9924 14.1287L24.8043 18.6246C24.1033 19.1339 23.81 20.0366 24.0777 20.8607L26.4414 28.1353C27.0401 29.9779 24.9311 31.5101 23.3637 30.3713L17.1756 25.8754C16.4746 25.3661 15.5254 25.3661 14.8244 25.8754L8.63631 30.3713C7.06888 31.5101 4.95992 29.9779 5.55862 28.1353L7.92228 20.8607C8.19002 20.0366 7.89671 19.1339 7.19573 18.6246L1.00761 14.1287C-0.559815 12.9899 0.245734 10.5106 2.18318 10.5106H9.83212C10.6986 10.5106 11.4665 9.95272 11.7342 9.12868L14.0979 1.8541Z" fill="#7531E3"/>
<path d="M17.6643 1.93135L20.028 9.20593C20.3292 10.133 21.1931 10.7606 22.1679 10.7606H29.8168C31.5121 10.7606 32.2169 12.93 30.8454 13.9264L24.6573 18.4224C23.8687 18.9953 23.5387 20.0109 23.84 20.9379L26.2036 28.2125C26.7275 29.8248 24.8821 31.1655 23.5106 30.1691L17.3225 25.6731C16.5339 25.1002 15.4661 25.1002 14.6775 25.6731L8.48936 30.1691C7.11786 31.1655 5.27252 29.8248 5.79639 28.2125L8.16004 20.9379C8.46126 20.0109 8.13128 18.9953 7.34268 18.4224L1.15456 13.9264C-0.216941 12.93 0.487916 10.7606 2.18318 10.7606H9.83212C10.8069 10.7606 11.6708 10.133 11.972 9.20593L14.3356 1.93136C14.8595 0.319064 17.1405 0.319062 17.6643 1.93135Z" stroke="#7531E3" stroke-opacity="0.75" stroke-width="0.5"/>
</svg>
